<?xml version="1.0" standalone="no"?>
<!DOCTYPE svg PUBLIC "-//W3C//DTD SVG 20010904//EN"
 "http://www.w3.org/TR/2001/REC-SVG-20010904/DTD/svg10.dtd">
<svg version="1.0" xmlns="http://www.w3.org/2000/svg"
 viewBox="0 0 300.000000 285.000000"
 preserveAspectRatio="xMidYMid meet">
<metadata>
Created by potrace 1.10, written by Peter Selinger 2001-2011
</metadata>
<g transform="translate(0.000000,285.000000) scale(0.100000,-0.100000)"
fill="#000000" stroke="none">
<path stroke="red" d="M725 2160 l0 -120 123 0 122 0 0 120 0 120 -122 0 -123 0 0 -120z
m193 68 c17 -17 16 -123 -2 -137 -9 -7 -40 -11 -78 -9 l-63 3 -3 64 c-2 35 -1
70 2 77 7 18 127 19 144 2z"/>
<path d="M1110 2090 l0 -190 -190 0 -190 0 -2 -676 c-2 -372 -2 -676 -1 -677
1 -1 232 0 515 4 494 5 516 6 587 27 290 88 509 308 597 597 24 80 27 106 27
235 1 119 -3 159 -21 224 -76 275 -279 498 -541 594 -124 45 -193 52 -497 52
l-284 0 0 -190z m698 121 c162 -48 282 -120 389 -235 192 -204 266 -500 194
-773 -73 -280 -294 -503 -578 -585 -76 -22 -89 -23 -558 -23 l-480 0 -3 624
c-2 493 0 626 10 633 7 4 82 8 167 8 211 0 201 -10 201 205 0 89 3 165 8 169
4 4 135 6 292 3 255 -4 293 -6 358 -26z"/>
<path d="M1302 2087 c-19 -20 -22 -35 -22 -103 0 -71 3 -83 23 -102 21 -20 34
-22 148 -22 246 -1 353 -33 455 -135 89 -88 127 -186 126 -321 -2 -210 -149
-384 -357 -424 -38 -7 -146 -10 -290 -8 l-230 3 -5 358 -5 359 -24 19 c-18 15
-39 19 -100 19 -69 0 -80 -3 -100 -24 l-22 -24 0 -457 c0 -507 -1 -498 65
-510 18 -4 191 -5 382 -2 283 3 361 7 413 21 232 60 422 239 498 471 23 69 27
98 27 205 1 104 -3 138 -22 200 -73 234 -265 421 -493 479 -58 15 -113 19
-259 20 -183 2 -186 1 -208 -22z m452 -37 c181 -46 343 -176 424 -341 96 -194
96 -395 0 -589 -57 -116 -178 -238 -290 -293 -131 -63 -159 -66 -576 -67
l-372 -1 -3 466 -2 465 88 0 87 0 0 -380 0 -380 265 0 c154 0 286 5 317 11
194 40 344 200 378 401 33 193 -71 402 -246 495 -96 51 -172 64 -350 61 l-154
-3 0 88 0 87 178 0 c145 0 193 -4 256 -20z"/>
<path d="M1305 1706 l-25 -25 0 -269 0 -269 24 -22 c23 -22 29 -22 197 -19
160 3 178 5 223 27 111 55 179 163 180 285 0 88 -24 145 -89 215 -76 81 -120
95 -317 99 l-167 4 -26 -26z m405 -44 c102 -53 153 -135 154 -247 1 -86 -27
-148 -92 -206 -67 -59 -111 -69 -294 -69 l-158 0 0 276 0 276 173 -4 c157 -3
176 -5 217 -26z"/>
</g>
</svg>
